# File created by Blade
# Date/Time:  Tue Sep 30 19:06:46 2014
#---------------------------------------------------------
:version 1.10
:name HOM
:units
  mass 1.0
  length 1.000000
  angle deg
:documentation
     Acclaim Skeleton File
:root
   axis xyz
   order TX TY TZ RX RY RZ
   position 0.000000 0.000000 0.000000
   orientation 0 0 0
:bonedata
   begin
      id 1
      name Spine_dum
      direction 0.000000 1.000000 0.000000
      length 7.508948
      axis 0.0 0.0 0.0 xyz
   end
   begin
      id 2
      name LeftUpLeg_dum
      direction 1.000000 0.000000 0.000000
      length 3.000560
      axis 0.0 0.0 0.0 xyz
   end
   begin
      id 3
      name RightUpLeg_dum
      direction -1.000000 0.000000 0.000000
      length 3.000560
      axis 0.0 0.0 0.0 xyz
   end
   begin
      id 4
      name Spine
      direction 0.000000 1.000000 0.000000
      length 0.000000
      axis 0.0 0.0 0.0 xyz
      dof rx ry rz
   end
   begin
      id 5
      name Spine_dum1
      direction 0.000000 1.000000 0.000000
      length 13.861154
      axis 0.0 0.0 0.0 xyz
   end
   begin
      id 6
      name Spine_dum2
      direction 0.000000 1.000000 0.000000
      length 8.204781
      axis 0.0 0.0 0.0 xyz
   end
   begin
      id 7
      name Spine_dum3
      direction 0.000000 1.000000 0.000000
      length 8.204781
      axis 0.0 0.0 0.0 xyz
   end
   begin
      id 8
      name Head
      direction 0.000000 1.000000 0.000000
      length 4.527550
      axis 0.0 0.0 0.0 xyz
      dof rx ry rz
   end
   begin
      id 9
      name LeftShoulder
      direction 1.000000 0.000000 0.000000
      length 6.635956
      axis 0.0 0.0 -90.0 xyz
      dof rx ry rz
   end
   begin
      id 10
      name LeftArm
      direction 1.000000 0.000000 0.000000
      length 10.274218
      axis 0.0 0.0 -90.0 xyz
      dof rx ry rz
   end
   begin
      id 11
      name LeftForeArm
      direction 1.000000 0.000000 0.000000
      length 8.522147
      axis 0.0 0.0 -90.0 xyz
      dof ry rz rx
   end
   begin
      id 12
      name LeftHand
      direction 0.000000 0.000000 0.000000
      length 0.000000
      axis 0.0 0.0 -90.0 xyz
      dof rx ry rz
   end
   begin
      id 13
      name LeftHand_dum1
      direction 0.000000 0.000000 0.000000
      length 0.000000
      axis 0.0 0.0 -90.0 xyz
   end
   begin
      id 14
      name LeftHand_dum2
      direction 1.000000 0.000000 0.000000
      length 3.937000
      axis 0.0 0.0 -90.0 xyz
   end
   begin
      id 15
      name LeftHandThumb1
      direction 0.000000 0.000000 1.000000
      length 3.937000
      axis 0.0 0.0 -90.0 xyz
      dof rx rz ry
   end
   begin
      id 16
      name RightShoulder
      direction -1.000000 0.000000 0.000000
      length 6.635956
      axis 0.0 0.0 90.0 xyz
      dof rx ry rz
   end
   begin
      id 17
      name RightArm
      direction -1.000000 0.000000 0.000000
      length 10.274218
      axis 0.0 0.0 90.0 xyz
      dof rx ry rz
   end
   begin
      id 18
      name RightForeArm
      direction -1.000000 0.000000 0.000000
      length 8.522147
      axis 0.0 0.0 90.0 xyz
      dof ry rz rx
   end
   begin
      id 19
      name RightHand
      direction 0.000000 0.000000 0.000000
      length 0.000000
      axis 0.0 0.0 90.0 xyz
      dof rx ry rz
   end
   begin
      id 20
      name RightHand_dum1
      direction 0.000000 0.000000 0.000000
      length 0.000000
      axis 0.0 0.0 90.0 xyz
   end
   begin
      id 21
      name RightHand_dum2
      direction -1.000000 0.000000 0.000000
      length 3.937000
      axis 0.0 0.0 90.0 xyz
   end
   begin
      id 22
      name RightHandThumb1
      direction 0.000000 0.000000 1.000000
      length 3.937000
      axis 0.0 0.0 90.0 xyz
      dof rx rz ry
   end
   begin
      id 23
      name LeftUpLeg
      direction 0.000000 -1.000000 0.000000
      length 16.490845
      axis 0.0 0.0 0.0 xyz
      dof rx ry rz
   end
   begin
      id 24
      name LeftLeg
      direction 0.000000 -1.000000 0.000000
      length 14.556576
      axis 0.0 0.0 0.0 xyz
      dof rx ry rz
   end
   begin
      id 25
      name LeftFoot
      direction 0.000000 -0.258819 0.965926
      length 4.831116
      axis 15.0 0.0 0.0 xyz
      dof rx ry rz
   end
   begin
      id 26
      name LeftToeBase
      direction 0.000000 0.000000 1.000000
      length 2.952750
      axis 0.0 0.0 0.0 xyz
      dof rx ry rz
   end
   begin
      id 27
      name RightUpLeg
      direction 0.000000 -1.000000 0.000000
      length 16.490845
      axis 0.0 0.0 0.0 xyz
      dof rx ry rz
   end
   begin
      id 28
      name RightLeg
      direction 0.000000 -1.000000 0.000000
      length 14.556576
      axis 0.0 0.0 0.0 xyz
      dof rx ry rz
   end
   begin
      id 29
      name RightFoot
      direction 0.000000 -0.258819 0.965926
      length 4.831116
      axis 15.0 0.0 0.0 xyz
      dof rx ry rz
   end
   begin
      id 30
      name RightToeBase
      direction 0.000000 0.000000 1.000000
      length 2.952750
      axis 0.0 0.0 0.0 xyz
      dof rx ry rz
   end
:hierarchy
   begin
      root Spine_dum LeftUpLeg_dum RightUpLeg_dum
      Spine_dum Spine
      LeftUpLeg_dum LeftUpLeg
      RightUpLeg_dum RightUpLeg
      Spine Spine_dum1 Spine_dum2 Spine_dum3
      Spine_dum1 Head
      Spine_dum2 LeftShoulder
      Spine_dum3 RightShoulder
      LeftShoulder LeftArm
      LeftArm LeftForeArm
      LeftForeArm LeftHand
      LeftHand LeftHand_dum1 LeftHand_dum2
      LeftHand_dum1 LeftHandThumb1
      RightShoulder RightArm
      RightArm RightForeArm
      RightForeArm RightHand
      RightHand RightHand_dum1 RightHand_dum2
      RightHand_dum1 RightHandThumb1
      LeftUpLeg LeftLeg
      LeftLeg LeftFoot
      LeftFoot LeftToeBase
      RightUpLeg RightLeg
      RightLeg RightFoot
      RightFoot RightToeBase
   end

# File created by Blade
# Date/Time:  Thu Sep 25 18:58:07 2014
# Frame Rate: 120.000 fps
#------------------------------------------------------
:FULLY-SPECIFIED
:DEGREES
391
root -1.167387 32.927771 1.537342 10.897104 -18.731689 -4.287651
Spine -8.607558 -21.152331 4.543795
Head -14.975790 -42.866358 15.190547
LeftShoulder -1.526487 5.471010 30.216157
LeftArm 25.622547 -14.895279 -23.396334
LeftForeArm 13.535658 -0.000000 15.303275
LeftHand -22.125456 -0.000000 -12.006029
LeftHandThumb1 -26.253704 0.000000 33.147579
RightShoulder -24.198732 9.889353 -37.750115
RightArm -18.081570 11.843661 33.201515
RightForeArm -28.455269 -0.000000 13.092572
RightHand -13.680917 -0.000000 11.777562
RightHandThumb1 -24.326973 -0.000000 -32.862282
LeftUpLeg 0.041740 20.413643 9.845455
LeftLeg -0.597455 -0.000000 0.000000
LeftFoot -8.884056 6.143695 -16.654641
LeftToeBase 6.982218 -0.000000 -0.000000
RightUpLeg -6.455100 0.456030 0.187528
RightLeg 0.081837 -0.000000 -0.000000
RightFoot -3.780867 5.700963 4.339069
RightToeBase -7.308815 -0.000000 0.000000
392
root -1.162642 32.927969 1.535980 10.797658 -17.769032 -4.135876
Spine -8.651200 -20.984379 4.495051
Head -14.866847 -42.653949 14.941389
LeftShoulder -1.618384 5.534436 30.159009
LeftArm 25.666110 -14.882245 -23.415268
LeftForeArm 13.479270 0.000000 15.263777
LeftHand -22.339045 -0.000000 -12.078317
LeftHandThumb1 -26.253704 0.000000 33.147579
RightShoulder -24.188109 10.017139 -37.835306
RightArm -17.990338 11.706753 33.147960
RightForeArm -28.455188 -0.000000 13.082907
RightHand -13.719070 -0.000000 11.846494
RightHandThumb1 -24.326973 -0.000000 -32.862282
LeftUpLeg -0.174293 20.004535 9.799083
LeftLeg -0.630414 -0.000000 0.000000
LeftFoot -8.670576 5.689334 -16.468965
LeftToeBase 7.082701 -0.000000 -0.000000
RightUpLeg -6.279535 -0.001205 0.149482
RightLeg 0.012130 -0.000000 -0.000000
RightFoot -3.911041 5.311026 4.488576
RightToeBase -7.177550 -0.000000 0.000000
393
root -1.168162 32.928390 1.536540 10.674060 -16.831438 -4.025654
Spine -8.632821 -20.756921 4.426409
Head -14.836463 -42.483089 14.837508
LeftShoulder -1.652520 5.578997 30.145968
LeftArm 25.634863 -15.025118 -23.515269
LeftForeArm 13.678373 -0.000000 15.289537
LeftHand -22.444408 -0.000000 -12.057392
LeftHandThumb1 -26.253704 0.000000 33.147579
RightShoulder -24.201981 10.088340 -37.895464
RightArm -17.900805 11.607021 33.111202
RightForeArm -28.498375 0.000000 13.061208
RightHand -13.785225 -0.000000 11.489807
RightHandThumb1 -24.326973 -0.000000 -32.862282
LeftUpLeg -0.320257 19.583658 9.836008
LeftLeg -0.686735 -0.000000 0.000000
LeftFoot -8.405569 5.167266 -16.389027
LeftToeBase 7.014057 -0.000000 -0.000000
RightUpLeg -6.062648 -0.401697 0.163202
RightLeg -0.045993 -0.000000 0.000000
RightFoot -4.054555 4.857864 4.602081
RightToeBase -6.926267 -0.000000 0.000000
394
root -1.172840 32.929426 1.534023 10.559867 -15.917015 -3.932649
Spine -8.624213 -20.528515 4.343782
Head -14.672114 -42.260116 14.658843
LeftShoulder -1.672891 5.662702 30.125160
LeftArm 25.580244 -14.982676 -23.441026
LeftForeArm 13.564192 -0.000000 15.225119
LeftHand -22.466289 -0.000000 -11.986009
LeftHandThumb1 -26.253704 0.000000 33.147579
RightShoulder -24.144833 9.999464 -37.815030
RightArm -17.683084 11.636500 33.091093
RightForeArm -28.526059 -0.000000 13.038749
RightHand -14.086628 -0.000000 11.481089
RightHandThumb1 -24.326973 -0.000000 -32.862282
LeftUpLeg -0.469800 19.137769 9.873275
LeftLeg -0.738475 -0.000000 0.000000
LeftFoot -8.186164 4.746260 -16.342930
LeftToeBase 7.095918 -0.000000 -0.000000
RightUpLeg -5.863076 -0.727172 0.186622
RightLeg -0.096659 -0.000000 0.000000
RightFoot -4.191950 4.330478 4.686982
RightToeBase -6.758065 -0.000000 0.000000
395
root -1.170035 32.929694 1.528312 10.448560 -15.055613 -3.835068
Spine -8.593646 -20.210079 4.271540
Head -14.627511 -42.089681 14.468354
LeftShoulder -1.676481 5.642916 30.105676
LeftArm 25.500068 -15.052373 -23.492082
LeftForeArm 13.717200 0.000000 15.240596
LeftHand -22.382128 0.000000 -11.807093
LeftHandThumb1 -26.253704 0.000000 33.147579
RightShoulder -24.119770 10.013065 -37.836361
RightArm -17.613408 11.584986 33.072307
RightForeArm -28.530581 -0.000000 13.117445
RightHand -13.943884 -0.000000 11.422481
RightHandThumb1 -24.326973 -0.000000 -32.862282
LeftUpLeg -0.617844 18.731123 9.884006
LeftLeg -0.795509 -0.000000 0.000000
LeftFoot -7.991820 4.357875 -16.255485
LeftToeBase 7.190002 -0.000000 -0.000000
RightUpLeg -5.697154 -0.958513 0.178145
RightLeg -0.105750 -0.000000 0.000000
RightFoot -4.355587 3.785906 4.840275
RightToeBase -6.445442 -0.000000 0.000000
